PathFileType	4	(X/Y/Z)	Patient4_TMGait_0pt7_01_right_06.trc.trc
DataRate	CameraRate	NumFrames	NumMarkers	Units	OrigDataRate	OrigDataStartFrame	OrigNumFrames
85.365853658537	85.365853658537	4	33	mm	85.365853658537	36	       141
Frame#	Time	Sacral			L.Shoulder			Chest			R.Shoulder			Neck			R.ASIS			L.ASIS			R.Thigh.Superior			R.Thigh.Lateral			R.Thigh.Inferior			R.Patella			L.Thigh.Superior			L.Thigh.Lateral			L.Thigh.Inferior			L.Patella			L.Shank.Superior			L.Shank.Lateral			L.Shank.Inferior			R.Shank.Superior			R.Shank.Lateral			R.Shank.Inferior			R.Heel			R.Midfoot.Superior			R.Midfoot.Lateral			R.Toe			L.Heel			L.Midfoot.Lateral			L.Midfoot.Superior			L.Toe			L.Elbow			L.Wrist			R.Elbow			R.Wrist			
		X1	Y1	Z1	X2	Y2	Z2	X3	Y3	Z3	X4	Y4	Z4	X5	Y5	Z5	X6	Y6	Z6	X7	Y7	Z7	X8	Y8	Z8	X9	Y9	Z9	X10	Y10	Z10	X11	Y11	Z11	X12	Y12	Z12	X13	Y13	Z13	X14	Y14	Z14	X15	Y15	Z15	X16	Y16	Z16	X17	Y17	Z17	X18	Y18	Z18	X19	Y19	Z19	X20	Y20	Z20	X21	Y21	Z21	X22	Y22	Z22	X23	Y23	Z23	X24	Y24	Z24	X25	Y25	Z25	X26	Y26	Z26	X27	Y27	Z27	X28	Y28	Z28	X29	Y29	Z29	X30	Y30	Z30	X31	Y31	Z31	X32	Y32	Z32	X33	Y33	Z33	

36	6.760000000000	766.517005737741	994.738758141389	510.443954662445	965.285058812063	1419.123909069751	326.503911846971	1052.719278125529	1349.296203446744	497.495278744989	956.975874883566	1433.532537262205	660.356793013429	956.639749135657	1483.221834532008	479.967664035374	991.694159742163	936.261964673005	638.224237719477	984.904151776463	950.338900324306	362.158647780404	1061.377462985820	752.670468180127	609.706427737555	994.928045314131	633.331092333072	669.097947932664	1081.625636603537	592.511337713360	592.135531552110	1095.589780426622	504.848294454436	599.915001428827	1004.176268609376	726.774087474362	383.315334227458	900.734997733427	622.359106435273	318.685733186252	977.116097459989	529.128930800361	374.401045866974	961.573500323900	446.326109348625	372.126940700220	893.211257252230	391.814819319999	366.786607431295	752.824442363734	346.234488413911	319.855950383163	741.973211911927	218.062965140492	377.783913799956	1079.565891100042	413.795459426365	606.487348276553	1020.236286993300	302.114461286963	666.334927339993	1076.573214331790	212.786212891570	606.172133702082	961.076912891810	42.786046983763	575.443307494870	1132.593423100764	99.021948936503	609.691496040454	1045.075464910147	36.853099181741	648.650364432430	1253.031890761048	46.544122801597	635.630561349260	554.968177266895	141.532209335439	420.878006661561	613.126971842578	98.388042009891	340.972064834386	715.879765018071	117.527774517627	358.773603283780	802.907655200258	32.242585503390	333.506758537212	998.794293654006	1086.478591967994	184.641826605624	1248.681171446432	1081.726532395401	229.448438656914	812.547498703323	1122.134103794973	777.657316487418	788.392771161968	861.837224234936	795.299755232353	
37	6.771714285714	767.227224483171	996.897019377962	514.006039041025	965.559794281578	1420.829383028259	328.392940424084	1054.205444488863	1350.874109952463	498.660378723709	960.072439177378	1435.320787031650	662.247184375076	957.994009659870	1484.794342318563	481.844065337333	993.057983624597	937.956220713489	640.499010222770	985.316705786794	951.984338355925	364.472585601338	1060.070190562291	751.889290008327	612.555600382175	991.522196102437	633.773838532366	671.124028198622	1077.368821822785	591.834547932594	593.715016408291	1090.126461971244	504.325207884762	600.790954645961	1009.736621027053	729.615452735308	385.859098617594	910.862817326607	622.502333756439	320.299732353521	990.335989721854	530.996104338908	375.981468740961	975.874943919079	446.896273737995	372.942665392693	905.354727057844	392.766302496111	367.539145212774	763.223691324749	352.789626289900	320.568675485326	747.673480305574	224.821808887241	377.620241674214	1073.555389776689	413.571076787132	607.493683485429	1013.653414984703	302.159318061991	667.137313518670	1069.262688493627	212.630819990009	606.569242376387	952.983086319541	42.724439442002	575.627008487635	1124.520313620657	99.198948293258	609.878715404806	1036.947658479140	36.880361630524	648.849062093321	1244.851712455814	46.778251809195	635.918346807644	557.839605210429	159.305093525052	420.272981922907	612.979330688395	111.760235916066	340.588392075982	716.876145765403	123.347729662268	358.425984701762	796.359656642729	31.048508370605	333.669620243182	995.751900500070	1086.749637237444	188.702709077058	1245.711564873301	1072.477329965920	232.724639267748	821.756785373508	1120.365259958212	780.398008248059	807.404990703938	859.079900424360	795.493404663120	
38	6.783428571429	767.689654515530	998.920932241452	517.438538897536	965.422896549351	1422.326545004445	330.196692267367	1055.520800371253	1352.238861192886	499.612358045661	963.178402286699	1436.839776727656	664.033191562718	959.163840617415	1486.164193021016	483.692568211050	994.224790892400	939.387884285350	642.577342564925	985.735517606317	953.525203948990	366.575556293833	1058.433890957834	750.894820985173	615.400641108629	987.762533140757	634.063100996211	673.080148579214	1072.770513691416	591.056558287882	595.253943674924	1084.307886365168	503.769278325793	601.628061290178	1015.266912444688	732.668306932403	388.369995562049	921.233572143812	622.941863488384	321.812066240951	1003.607171949169	533.350684248386	377.764913290488	990.433499553858	448.029068202788	374.132902164023	918.026829029108	394.136064331793	368.524907073538	774.524080964754	359.453221922775	321.266168896806	754.412695210363	231.876465939395	377.622057675970	1067.279327924613	413.298769288181	608.446491828263	1006.891881072265	302.107652034017	667.897042310193	1061.847439136244	212.439393092748	606.914954605800	944.833105647324	42.676697820144	575.768287538921	1116.439754265451	99.307892866701	609.986932694353	1028.769473295998	36.882128467775	649.004142101140	1236.656648665186	46.831030447653	636.127206293538	562.320839037557	177.127557695688	419.590064191174	614.471166959472	125.550837846408	340.166854095032	719.107111586754	129.748478370669	358.287178336493	791.019421078827	30.083810566774	333.974082269757	992.545740455246	1086.837807266900	192.688019530190	1242.179172413343	1061.999702571859	235.896095522715	831.058596136807	1118.600960364038	783.277697357865	827.545903300075	856.656299127702	795.687448864377	
39	6.795142857143	767.927168482506	1000.768582600171	520.724099557072	964.920244065488	1423.592869220344	331.899245012685	1056.667405381342	1353.356009167796	500.350678193121	966.265231582672	1438.051354190921	665.696234472913	960.184236918714	1487.319083179589	485.493412169415	995.193053728146	940.569513021765	644.465812882936	986.152043661641	954.940555421618	368.458125091870	1056.584055806971	749.811957839729	618.121438572871	983.894656965938	634.264657022859	674.965514735361	1068.040639193629	590.244638792927	596.724946896481	1078.352017206118	503.211115242811	602.456715018008	1020.650140244468	735.947651139314	390.861072892912	931.654472257024	623.763571812166	323.237316075510	1016.705497685609	536.241557839189	379.730312925894	1005.043415291728	449.778205243928	375.630781341604	931.040034467546	395.964332023144	369.711420925807	786.516206011173	366.102930029016	321.958738907369	762.153056152924	239.033183198156	377.786671511208	1060.919100174787	412.990226469878	609.349126229760	1000.106748107542	301.995638555191	668.645094594130	1054.413891623613	212.215356457261	607.218795063696	936.633545142938	42.651808826712	575.891926708126	1108.344707684162	99.352187085858	610.045353048387	1020.549658925585	36.864611183185	649.135444551083	1228.455107088961	46.709965022348	636.271314654961	568.356983764774	194.313310585042	418.851361086860	617.724659654403	139.181879181497	339.736114279874	722.722864236375	136.516502646414	358.349155918108	787.395709185129	29.523402940356	334.449162638990	989.200281793687	1086.684957184650	196.603506354007	1237.983155854382	1050.324539388892	238.913108701575	840.441458186956	1116.802547716070	786.259698053048	848.740111084123	854.670251941452	795.844525777305	
